<?xml version="1.0" encoding="UTF-8" standalone="no"?>
<svg
   xmlns:dc="http://purl.org/dc/elements/1.1/"
   xmlns:cc="http://creativecommons.org/ns#"
   xmlns:rdf="http://www.w3.org/1999/02/22-rdf-syntax-ns#"
   xmlns:svg="http://www.w3.org/2000/svg"
   xmlns="http://www.w3.org/2000/svg"
   xmlns:sodipodi="http://sodipodi.sourceforge.net/DTD/sodipodi-0.dtd"
   xmlns:inkscape="http://www.inkscape.org/namespaces/inkscape"
   version="1.0"
   width="100pt"
   height="100pt"
   viewBox="0 0 100 100"
   preserveAspectRatio="xMidYMid meet"
   id="svg434"
   sodipodi:docname="dots.svg"
   inkscape:version="1.0.1 (3bc2e813f5, 2020-09-07)">
  <defs
     id="defs438" />
  <sodipodi:namedview
     pagecolor="#ffffff"
     bordercolor="#666666"
     borderopacity="1"
     objecttolerance="10"
     gridtolerance="10"
     guidetolerance="10"
     inkscape:pageopacity="0"
     inkscape:pageshadow="2"
     inkscape:window-width="1920"
     inkscape:window-height="1017"
     id="namedview436"
     showgrid="false"
     inkscape:zoom="2.8173786"
     inkscape:cx="99.622106"
     inkscape:cy="140.5898"
     inkscape:window-x="-8"
     inkscape:window-y="-8"
     inkscape:window-maximized="1"
     inkscape:current-layer="svg434" />
  <metadata
     id="metadata230">
Created by potrace 1.15, written by Peter Selinger 2001-2017
<rdf:RDF>
  <cc:Work
     rdf:about="">
    <dc:format>image/svg+xml</dc:format>
    <dc:type
       rdf:resource="http://purl.org/dc/dcmitype/StillImage" />
    <dc:title></dc:title>
  </cc:Work>
</rdf:RDF>
</metadata>
  <g
     transform="matrix(0.01647645,0,0,-0.01647645,-3.1649357,207.69708)"
     fill="#e91e63"
     stroke="none"
     id="g432"
     style="fill:#ff928b;fill-opacity:1">
    <path
       d="m 550,12465 c -105,-35 -200,-141 -222,-248 -43,-206 163,-412 369,-369 155,32 275,190 260,339 -11,105 -90,213 -190,262 -61,29 -155,36 -217,16 z"
       id="path232"
       style="fill:#ff928b;fill-opacity:1" />
    <path
       d="m 1830,12465 c -151,-50 -253,-216 -222,-362 25,-119 136,-230 254,-255 194,-41 395,142 375,339 -11,105 -90,213 -190,262 -61,29 -155,36 -217,16 z"
       id="path234"
       style="fill:#ff928b;fill-opacity:1" />
    <path
       d="m 3110,12465 c -105,-35 -200,-141 -222,-248 -43,-206 163,-412 369,-369 155,32 275,190 260,339 -11,105 -90,213 -190,262 -61,29 -155,36 -217,16 z"
       id="path236"
       style="fill:#ff928b;fill-opacity:1" />
    <path
       d="m 4390,12465 c -105,-35 -200,-141 -222,-248 -43,-206 163,-412 369,-369 155,32 275,190 260,339 -11,105 -90,213 -190,262 -61,29 -155,36 -217,16 z"
       id="path238"
       style="fill:#ff928b;fill-opacity:1" />
    <path
       d="m 5670,12465 c -105,-35 -200,-141 -222,-248 -43,-206 163,-412 369,-369 155,32 275,190 260,339 -11,105 -90,213 -190,262 -61,29 -155,36 -217,16 z"
       id="path240"
       style="fill:#ff928b;fill-opacity:1" />
    <path
       d="m 6950,12465 c -105,-35 -200,-141 -222,-248 -43,-206 163,-412 369,-369 155,32 275,190 260,339 -11,105 -90,213 -190,262 -61,29 -155,36 -217,16 z"
       id="path242"
       style="fill:#ff928b;fill-opacity:1" />
    <path
       d="m 8230,12465 c -105,-35 -200,-141 -222,-248 -43,-206 163,-412 369,-369 155,32 275,190 260,339 -11,105 -90,213 -190,262 -61,29 -155,36 -217,16 z"
       id="path244"
       style="fill:#ff928b;fill-opacity:1" />
    <path
       d="m 9510,12465 c -105,-35 -200,-141 -222,-248 -43,-206 163,-412 369,-369 155,32 275,190 260,339 -11,105 -90,213 -190,262 -61,29 -155,36 -217,16 z"
       id="path246"
       style="fill:#ff928b;fill-opacity:1" />
    <path
       d="m 10790,12465 c -105,-35 -200,-141 -222,-248 -25,-117 32,-244 142,-319 107,-74 229,-75 337,-3 177,118 201,338 53,485 -85,86 -207,119 -310,85 z"
       id="path248"
       style="fill:#ff928b;fill-opacity:1" />
    <path
       d="m 12070,12465 c -105,-35 -200,-141 -222,-248 -25,-117 32,-244 142,-319 107,-74 229,-75 337,-3 177,118 201,338 53,485 -85,86 -207,119 -310,85 z"
       id="path250"
       style="fill:#ff928b;fill-opacity:1" />
    <path
       d="m 550,11185 c -105,-35 -200,-141 -222,-248 -43,-206 163,-412 369,-369 155,32 275,190 260,339 -11,105 -90,213 -190,262 -61,29 -155,36 -217,16 z"
       id="path252"
       style="fill:#ff928b;fill-opacity:1" />
    <path
       d="m 1830,11185 c -151,-50 -253,-216 -222,-362 25,-119 136,-230 254,-255 194,-41 395,142 375,339 -11,105 -90,213 -190,262 -61,29 -155,36 -217,16 z"
       id="path254"
       style="fill:#ff928b;fill-opacity:1" />
    <path
       d="m 3110,11185 c -105,-35 -200,-141 -222,-248 -43,-206 163,-412 369,-369 155,32 275,190 260,339 -11,105 -90,213 -190,262 -61,29 -155,36 -217,16 z"
       id="path256"
       style="fill:#ff928b;fill-opacity:1" />
    <path
       d="m 4390,11185 c -105,-35 -200,-141 -222,-248 -43,-206 163,-412 369,-369 155,32 275,190 260,339 -11,105 -90,213 -190,262 -61,29 -155,36 -217,16 z"
       id="path258"
       style="fill:#ff928b;fill-opacity:1" />
    <path
       d="m 5670,11185 c -105,-35 -200,-141 -222,-248 -43,-206 163,-412 369,-369 155,32 275,190 260,339 -11,105 -90,213 -190,262 -61,29 -155,36 -217,16 z"
       id="path260"
       style="fill:#ff928b;fill-opacity:1" />
    <path
       d="m 6950,11185 c -105,-35 -200,-141 -222,-248 -43,-206 163,-412 369,-369 155,32 275,190 260,339 -11,105 -90,213 -190,262 -61,29 -155,36 -217,16 z"
       id="path262"
       style="fill:#ff928b;fill-opacity:1" />
    <path
       d="m 8230,11185 c -105,-35 -200,-141 -222,-248 -43,-206 163,-412 369,-369 155,32 275,190 260,339 -11,105 -90,213 -190,262 -61,29 -155,36 -217,16 z"
       id="path264"
       style="fill:#ff928b;fill-opacity:1" />
    <path
       d="m 9510,11185 c -105,-35 -200,-141 -222,-248 -43,-206 163,-412 369,-369 155,32 275,190 260,339 -11,105 -90,213 -190,262 -61,29 -155,36 -217,16 z"
       id="path266"
       style="fill:#ff928b;fill-opacity:1" />
    <path
       d="m 10790,11185 c -105,-35 -200,-141 -222,-248 -25,-117 32,-244 142,-319 107,-74 229,-75 337,-3 177,118 201,338 53,485 -85,86 -207,119 -310,85 z"
       id="path268"
       style="fill:#ff928b;fill-opacity:1" />
    <path
       d="m 12070,11185 c -105,-35 -200,-141 -222,-248 -25,-117 32,-244 142,-319 107,-74 229,-75 337,-3 177,118 201,338 53,485 -85,86 -207,119 -310,85 z"
       id="path270"
       style="fill:#ff928b;fill-opacity:1" />
    <path
       d="m 550,9905 c -105,-35 -200,-141 -222,-248 -43,-206 163,-412 369,-369 155,32 275,190 260,339 -11,105 -90,213 -190,262 -61,29 -155,36 -217,16 z"
       id="path272"
       style="fill:#ff928b;fill-opacity:1" />
    <path
       d="m 1830,9905 c -105,-35 -200,-141 -222,-248 -43,-206 163,-412 369,-369 155,32 275,190 260,339 -11,105 -90,213 -190,262 -61,29 -155,36 -217,16 z"
       id="path274"
       style="fill:#ff928b;fill-opacity:1" />
    <path
       d="m 3110,9905 c -105,-35 -200,-141 -222,-248 -43,-206 163,-412 369,-369 155,32 275,190 260,339 -11,105 -90,213 -190,262 -61,29 -155,36 -217,16 z"
       id="path276"
       style="fill:#ff928b;fill-opacity:1" />
    <path
       d="m 4390,9905 c -105,-35 -200,-141 -222,-248 -43,-206 163,-412 369,-369 155,32 275,190 260,339 -11,105 -90,213 -190,262 -61,29 -155,36 -217,16 z"
       id="path278"
       style="fill:#ff928b;fill-opacity:1" />
    <path
       d="m 5670,9905 c -105,-35 -200,-141 -222,-248 -43,-206 163,-412 369,-369 155,32 275,190 260,339 -11,105 -90,213 -190,262 -61,29 -155,36 -217,16 z"
       id="path280"
       style="fill:#ff928b;fill-opacity:1" />
    <path
       d="m 6950,9905 c -105,-35 -200,-141 -222,-248 -43,-206 163,-412 369,-369 155,32 275,190 260,339 -11,105 -90,213 -190,262 -61,29 -155,36 -217,16 z"
       id="path282"
       style="fill:#ff928b;fill-opacity:1" />
    <path
       d="m 8230,9905 c -105,-35 -200,-141 -222,-248 -43,-206 163,-412 369,-369 155,32 275,190 260,339 -11,105 -90,213 -190,262 -61,29 -155,36 -217,16 z"
       id="path284"
       style="fill:#ff928b;fill-opacity:1" />
    <path
       d="m 9510,9905 c -105,-35 -200,-141 -222,-248 -43,-206 163,-412 369,-369 155,32 275,190 260,339 -11,105 -90,213 -190,262 -61,29 -155,36 -217,16 z"
       id="path286"
       style="fill:#ff928b;fill-opacity:1" />
    <path
       d="m 10790,9905 c -105,-35 -200,-141 -222,-248 -43,-206 163,-412 369,-369 155,32 275,190 260,339 -11,105 -90,213 -190,262 -61,29 -155,36 -217,16 z"
       id="path288"
       style="fill:#ff928b;fill-opacity:1" />
    <path
       d="m 12070,9905 c -105,-35 -200,-141 -222,-248 -43,-206 163,-412 369,-369 155,32 275,190 260,339 -11,105 -90,213 -190,262 -61,29 -155,36 -217,16 z"
       id="path290"
       style="fill:#ff928b;fill-opacity:1" />
    <path
       d="m 550,8625 c -105,-35 -200,-141 -222,-248 -43,-206 163,-412 369,-369 155,32 275,190 260,339 -11,105 -90,213 -190,262 -61,29 -155,36 -217,16 z"
       id="path292"
       style="fill:#ff928b;fill-opacity:1" />
    <path
       d="m 1830,8625 c -105,-35 -200,-141 -222,-248 -43,-206 163,-412 369,-369 155,32 275,190 260,339 -11,105 -90,213 -190,262 -61,29 -155,36 -217,16 z"
       id="path294"
       style="fill:#ff928b;fill-opacity:1" />
    <path
       d="m 3110,8625 c -105,-35 -200,-141 -222,-248 -43,-206 163,-412 369,-369 155,32 275,190 260,339 -11,105 -90,213 -190,262 -61,29 -155,36 -217,16 z"
       id="path296"
       style="fill:#ff928b;fill-opacity:1" />
    <path
       d="m 4390,8625 c -105,-35 -200,-141 -222,-248 -43,-206 163,-412 369,-369 155,32 275,190 260,339 -11,105 -90,213 -190,262 -61,29 -155,36 -217,16 z"
       id="path298"
       style="fill:#ff928b;fill-opacity:1" />
    <path
       d="m 5670,8625 c -105,-35 -200,-141 -222,-248 -43,-206 163,-412 369,-369 155,32 275,190 260,339 -11,105 -90,213 -190,262 -61,29 -155,36 -217,16 z"
       id="path300"
       style="fill:#ff928b;fill-opacity:1" />
    <path
       d="m 6950,8625 c -105,-35 -200,-141 -222,-248 -43,-206 163,-412 369,-369 155,32 275,190 260,339 -11,105 -90,213 -190,262 -61,29 -155,36 -217,16 z"
       id="path302"
       style="fill:#ff928b;fill-opacity:1" />
    <path
       d="m 8230,8625 c -105,-35 -200,-141 -222,-248 -43,-206 163,-412 369,-369 155,32 275,190 260,339 -11,105 -90,213 -190,262 -61,29 -155,36 -217,16 z"
       id="path304"
       style="fill:#ff928b;fill-opacity:1" />
    <path
       d="m 9510,8625 c -105,-35 -200,-141 -222,-248 -43,-206 163,-412 369,-369 155,32 275,190 260,339 -11,105 -90,213 -190,262 -61,29 -155,36 -217,16 z"
       id="path306"
       style="fill:#ff928b;fill-opacity:1" />
    <path
       d="m 10790,8625 c -105,-35 -200,-141 -222,-248 -43,-206 163,-412 369,-369 155,32 275,190 260,339 -11,105 -90,213 -190,262 -61,29 -155,36 -217,16 z"
       id="path308"
       style="fill:#ff928b;fill-opacity:1" />
    <path
       d="m 12070,8625 c -105,-35 -200,-141 -222,-248 -43,-206 163,-412 369,-369 155,32 275,190 260,339 -11,105 -90,213 -190,262 -61,29 -155,36 -217,16 z"
       id="path310"
       style="fill:#ff928b;fill-opacity:1" />
    <path
       d="m 550,7345 c -105,-35 -200,-141 -222,-248 -43,-206 163,-412 369,-369 155,32 275,190 260,339 -11,105 -90,213 -190,262 -61,29 -155,36 -217,16 z"
       id="path312"
       style="fill:#ff928b;fill-opacity:1" />
    <path
       d="m 1830,7345 c -105,-35 -200,-141 -222,-248 -43,-206 163,-412 369,-369 155,32 275,190 260,339 -11,105 -90,213 -190,262 -61,29 -155,36 -217,16 z"
       id="path314"
       style="fill:#ff928b;fill-opacity:1" />
    <path
       d="m 3110,7345 c -105,-35 -200,-141 -222,-248 -43,-206 163,-412 369,-369 155,32 275,190 260,339 -11,105 -90,213 -190,262 -61,29 -155,36 -217,16 z"
       id="path316"
       style="fill:#ff928b;fill-opacity:1" />
    <path
       d="m 4390,7345 c -105,-35 -200,-141 -222,-248 -43,-206 163,-412 369,-369 155,32 275,190 260,339 -11,105 -90,213 -190,262 -61,29 -155,36 -217,16 z"
       id="path318"
       style="fill:#ff928b;fill-opacity:1" />
    <path
       d="m 5670,7345 c -105,-35 -200,-141 -222,-248 -43,-206 163,-412 369,-369 155,32 275,190 260,339 -11,105 -90,213 -190,262 -61,29 -155,36 -217,16 z"
       id="path320"
       style="fill:#ff928b;fill-opacity:1" />
    <path
       d="m 6950,7345 c -105,-35 -200,-141 -222,-248 -43,-206 163,-412 369,-369 155,32 275,190 260,339 -11,105 -90,213 -190,262 -61,29 -155,36 -217,16 z"
       id="path322"
       style="fill:#ff928b;fill-opacity:1" />
    <path
       d="m 8230,7345 c -105,-35 -200,-141 -222,-248 -43,-206 163,-412 369,-369 155,32 275,190 260,339 -11,105 -90,213 -190,262 -61,29 -155,36 -217,16 z"
       id="path324"
       style="fill:#ff928b;fill-opacity:1" />
    <path
       d="m 9510,7345 c -105,-35 -200,-141 -222,-248 -43,-206 163,-412 369,-369 155,32 275,190 260,339 -11,105 -90,213 -190,262 -61,29 -155,36 -217,16 z"
       id="path326"
       style="fill:#ff928b;fill-opacity:1" />
    <path
       d="m 10790,7345 c -105,-35 -200,-141 -222,-248 -43,-206 163,-412 369,-369 155,32 275,190 260,339 -11,105 -90,213 -190,262 -61,29 -155,36 -217,16 z"
       id="path328"
       style="fill:#ff928b;fill-opacity:1" />
    <path
       d="m 12070,7345 c -105,-35 -200,-141 -222,-248 -43,-206 163,-412 369,-369 155,32 275,190 260,339 -11,105 -90,213 -190,262 -61,29 -155,36 -217,16 z"
       id="path330"
       style="fill:#ff928b;fill-opacity:1" />
    <path
       d="m 550,6065 c -105,-35 -200,-141 -222,-248 -43,-206 163,-412 369,-369 155,32 275,190 260,339 -11,105 -90,213 -190,262 -61,29 -155,36 -217,16 z"
       id="path332"
       style="fill:#ff928b;fill-opacity:1" />
    <path
       d="m 1830,6065 c -105,-35 -200,-141 -222,-248 -43,-206 163,-412 369,-369 155,32 275,190 260,339 -11,105 -90,213 -190,262 -61,29 -155,36 -217,16 z"
       id="path334"
       style="fill:#ff928b;fill-opacity:1" />
    <path
       d="m 3110,6065 c -105,-35 -200,-141 -222,-248 -43,-206 163,-412 369,-369 155,32 275,190 260,339 -11,105 -90,213 -190,262 -61,29 -155,36 -217,16 z"
       id="path336"
       style="fill:#ff928b;fill-opacity:1" />
    <path
       d="m 4390,6065 c -105,-35 -200,-141 -222,-248 -43,-206 163,-412 369,-369 155,32 275,190 260,339 -11,105 -90,213 -190,262 -61,29 -155,36 -217,16 z"
       id="path338"
       style="fill:#ff928b;fill-opacity:1" />
    <path
       d="m 5670,6065 c -105,-35 -200,-141 -222,-248 -43,-206 163,-412 369,-369 155,32 275,190 260,339 -11,105 -90,213 -190,262 -61,29 -155,36 -217,16 z"
       id="path340"
       style="fill:#ff928b;fill-opacity:1" />
    <path
       d="m 6950,6065 c -105,-35 -200,-141 -222,-248 -43,-206 163,-412 369,-369 155,32 275,190 260,339 -11,105 -90,213 -190,262 -61,29 -155,36 -217,16 z"
       id="path342"
       style="fill:#ff928b;fill-opacity:1" />
    <path
       d="m 8230,6065 c -105,-35 -200,-141 -222,-248 -43,-206 163,-412 369,-369 155,32 275,190 260,339 -11,105 -90,213 -190,262 -61,29 -155,36 -217,16 z"
       id="path344"
       style="fill:#ff928b;fill-opacity:1" />
    <path
       d="m 9510,6065 c -105,-35 -200,-141 -222,-248 -43,-206 163,-412 369,-369 155,32 275,190 260,339 -11,105 -90,213 -190,262 -61,29 -155,36 -217,16 z"
       id="path346"
       style="fill:#ff928b;fill-opacity:1" />
    <path
       d="m 10790,6065 c -105,-35 -200,-141 -222,-248 -43,-206 163,-412 369,-369 155,32 275,190 260,339 -11,105 -90,213 -190,262 -61,29 -155,36 -217,16 z"
       id="path348"
       style="fill:#ff928b;fill-opacity:1" />
    <path
       d="m 12070,6065 c -105,-35 -200,-141 -222,-248 -43,-206 163,-412 369,-369 155,32 275,190 260,339 -11,105 -90,213 -190,262 -61,29 -155,36 -217,16 z"
       id="path350"
       style="fill:#ff928b;fill-opacity:1" />
    <path
       d="m 550,4785 c -105,-35 -200,-141 -222,-248 -43,-206 163,-412 369,-369 155,32 275,190 260,339 -11,105 -90,213 -190,262 -61,29 -155,36 -217,16 z"
       id="path352"
       style="fill:#ff928b;fill-opacity:1" />
    <path
       d="m 1830,4785 c -105,-35 -200,-141 -222,-248 -43,-206 163,-412 369,-369 155,32 275,190 260,339 -11,105 -90,213 -190,262 -61,29 -155,36 -217,16 z"
       id="path354"
       style="fill:#ff928b;fill-opacity:1" />
    <path
       d="m 3110,4785 c -105,-35 -200,-141 -222,-248 -25,-117 32,-244 142,-319 107,-74 229,-75 337,-3 177,118 201,338 53,485 -85,86 -207,119 -310,85 z"
       id="path356"
       style="fill:#ff928b;fill-opacity:1" />
    <path
       d="m 4390,4785 c -105,-35 -200,-141 -222,-248 -25,-117 32,-244 142,-319 107,-74 229,-75 337,-3 177,118 201,338 53,485 -85,86 -207,119 -310,85 z"
       id="path358"
       style="fill:#ff928b;fill-opacity:1" />
    <path
       d="m 5670,4785 c -151,-50 -253,-216 -222,-362 25,-119 136,-230 255,-255 193,-41 394,142 374,339 -11,105 -90,213 -190,262 -61,29 -155,36 -217,16 z"
       id="path360"
       style="fill:#ff928b;fill-opacity:1" />
    <path
       d="m 6950,4785 c -151,-50 -253,-216 -222,-362 25,-119 136,-230 255,-255 193,-41 394,142 374,339 -11,105 -90,213 -190,262 -61,29 -155,36 -217,16 z"
       id="path362"
       style="fill:#ff928b;fill-opacity:1" />
    <path
       d="m 8230,4785 c -151,-50 -253,-216 -222,-362 25,-119 136,-230 255,-255 193,-41 394,142 374,339 -11,105 -90,213 -190,262 -61,29 -155,36 -217,16 z"
       id="path364"
       style="fill:#ff928b;fill-opacity:1" />
    <path
       d="m 9510,4785 c -151,-50 -253,-216 -222,-362 25,-119 136,-230 255,-255 193,-41 394,142 374,339 -11,105 -90,213 -190,262 -61,29 -155,36 -217,16 z"
       id="path366"
       style="fill:#ff928b;fill-opacity:1" />
    <path
       d="m 10790,4785 c -105,-35 -200,-141 -222,-248 -43,-206 163,-412 369,-369 155,32 275,190 260,339 -11,105 -90,213 -190,262 -61,29 -155,36 -217,16 z"
       id="path368"
       style="fill:#ff928b;fill-opacity:1" />
    <path
       d="m 12070,4785 c -105,-35 -200,-141 -222,-248 -43,-206 163,-412 369,-369 155,32 275,190 260,339 -11,105 -90,213 -190,262 -61,29 -155,36 -217,16 z"
       id="path370"
       style="fill:#ff928b;fill-opacity:1" />
    <path
       d="m 550,3505 c -105,-35 -200,-141 -222,-248 -43,-206 163,-412 369,-369 155,32 275,190 260,339 -11,105 -90,213 -190,262 -61,29 -155,36 -217,16 z"
       id="path372"
       style="fill:#ff928b;fill-opacity:1" />
    <path
       d="m 1830,3505 c -105,-35 -200,-141 -222,-248 -43,-206 163,-412 369,-369 155,32 275,190 260,339 -11,105 -90,213 -190,262 -61,29 -155,36 -217,16 z"
       id="path374"
       style="fill:#ff928b;fill-opacity:1" />
    <path
       d="m 3110,3505 c -105,-35 -200,-141 -222,-248 -25,-117 32,-244 142,-319 107,-74 229,-75 337,-3 177,118 201,338 53,485 -85,86 -207,119 -310,85 z"
       id="path376"
       style="fill:#ff928b;fill-opacity:1" />
    <path
       d="m 4390,3505 c -105,-35 -200,-141 -222,-248 -25,-117 32,-244 142,-319 107,-74 229,-75 337,-3 177,118 201,338 53,485 -85,86 -207,119 -310,85 z"
       id="path378"
       style="fill:#ff928b;fill-opacity:1" />
    <path
       d="m 5670,3505 c -151,-50 -253,-216 -222,-362 25,-119 136,-230 255,-255 193,-41 394,142 374,339 -11,105 -90,213 -190,262 -61,29 -155,36 -217,16 z"
       id="path380"
       style="fill:#ff928b;fill-opacity:1" />
    <path
       d="m 6950,3505 c -151,-50 -253,-216 -222,-362 25,-119 136,-230 255,-255 193,-41 394,142 374,339 -11,105 -90,213 -190,262 -61,29 -155,36 -217,16 z"
       id="path382"
       style="fill:#ff928b;fill-opacity:1" />
    <path
       d="m 8230,3505 c -151,-50 -253,-216 -222,-362 25,-119 136,-230 255,-255 193,-41 394,142 374,339 -11,105 -90,213 -190,262 -61,29 -155,36 -217,16 z"
       id="path384"
       style="fill:#ff928b;fill-opacity:1" />
    <path
       d="m 9510,3505 c -151,-50 -253,-216 -222,-362 25,-119 136,-230 255,-255 193,-41 394,142 374,339 -11,105 -90,213 -190,262 -61,29 -155,36 -217,16 z"
       id="path386"
       style="fill:#ff928b;fill-opacity:1" />
    <path
       d="m 10790,3505 c -105,-35 -200,-141 -222,-248 -43,-206 163,-412 369,-369 155,32 275,190 260,339 -11,105 -90,213 -190,262 -61,29 -155,36 -217,16 z"
       id="path388"
       style="fill:#ff928b;fill-opacity:1" />
    <path
       d="m 12070,3505 c -105,-35 -200,-141 -222,-248 -43,-206 163,-412 369,-369 155,32 275,190 260,339 -11,105 -90,213 -190,262 -61,29 -155,36 -217,16 z"
       id="path390"
       style="fill:#ff928b;fill-opacity:1" />
    <path
       d="m 550,2225 c -105,-35 -200,-141 -222,-248 -43,-206 163,-412 369,-369 155,32 275,190 260,339 -11,105 -90,213 -190,262 -61,29 -155,36 -217,16 z"
       id="path392"
       style="fill:#ff928b;fill-opacity:1" />
    <path
       d="m 1830,2225 c -105,-35 -200,-141 -222,-248 -43,-206 163,-412 369,-369 155,32 275,190 260,339 -11,105 -90,213 -190,262 -61,29 -155,36 -217,16 z"
       id="path394"
       style="fill:#ff928b;fill-opacity:1" />
    <path
       d="m 3110,2225 c -105,-35 -200,-141 -222,-248 -25,-117 32,-244 142,-319 107,-74 229,-75 337,-3 177,118 201,338 53,485 -85,86 -207,119 -310,85 z"
       id="path396"
       style="fill:#ff928b;fill-opacity:1" />
    <path
       d="m 4390,2225 c -105,-35 -200,-141 -222,-248 -25,-117 32,-244 142,-319 107,-74 229,-75 337,-3 177,118 201,338 53,485 -85,86 -207,119 -310,85 z"
       id="path398"
       style="fill:#ff928b;fill-opacity:1" />
    <path
       d="m 5670,2225 c -105,-35 -200,-141 -222,-248 -43,-206 163,-412 369,-369 155,32 275,190 260,339 -11,105 -90,213 -190,262 -61,29 -155,36 -217,16 z"
       id="path400"
       style="fill:#ff928b;fill-opacity:1" />
    <path
       d="m 6950,2225 c -105,-35 -200,-141 -222,-248 -43,-206 163,-412 369,-369 155,32 275,190 260,339 -11,105 -90,213 -190,262 -61,29 -155,36 -217,16 z"
       id="path402"
       style="fill:#ff928b;fill-opacity:1" />
    <path
       d="m 8230,2225 c -105,-35 -200,-141 -222,-248 -43,-206 163,-412 369,-369 155,32 275,190 260,339 -11,105 -90,213 -190,262 -61,29 -155,36 -217,16 z"
       id="path404"
       style="fill:#ff928b;fill-opacity:1" />
    <path
       d="m 9510,2225 c -105,-35 -200,-141 -222,-248 -43,-206 163,-412 369,-369 155,32 275,190 260,339 -11,105 -90,213 -190,262 -61,29 -155,36 -217,16 z"
       id="path406"
       style="fill:#ff928b;fill-opacity:1" />
    <path
       d="m 10790,2225 c -105,-35 -200,-141 -222,-248 -43,-206 163,-412 369,-369 155,32 275,190 260,339 -11,105 -90,213 -190,262 -61,29 -155,36 -217,16 z"
       id="path408"
       style="fill:#ff928b;fill-opacity:1" />
    <path
       d="m 12070,2225 c -105,-35 -200,-141 -222,-248 -43,-206 163,-412 369,-369 155,32 275,190 260,339 -11,105 -90,213 -190,262 -61,29 -155,36 -217,16 z"
       id="path410"
       style="fill:#ff928b;fill-opacity:1" />
    <path
       d="M 550,945 C 445,910 350,804 328,697 285,491 491,285 697,328 852,360 972,518 957,667 946,772 867,880 767,929 706,958 612,965 550,945 Z"
       id="path412"
       style="fill:#ff928b;fill-opacity:1" />
    <path
       d="m 1830,945 c -105,-35 -200,-141 -222,-248 -43,-206 163,-412 369,-369 155,32 275,190 260,339 -11,105 -90,213 -190,262 -61,29 -155,36 -217,16 z"
       id="path414"
       style="fill:#ff928b;fill-opacity:1" />
    <path
       d="m 3110,945 c -105,-35 -200,-141 -222,-248 -43,-206 163,-412 369,-369 155,32 275,190 260,339 -11,105 -90,213 -190,262 -61,29 -155,36 -217,16 z"
       id="path416"
       style="fill:#ff928b;fill-opacity:1" />
    <path
       d="m 4390,945 c -105,-35 -200,-141 -222,-248 -43,-206 163,-412 369,-369 155,32 275,190 260,339 -11,105 -90,213 -190,262 -61,29 -155,36 -217,16 z"
       id="path418"
       style="fill:#ff928b;fill-opacity:1" />
    <path
       d="m 5670,945 c -105,-35 -200,-141 -222,-248 -43,-206 163,-412 369,-369 155,32 275,190 260,339 -11,105 -90,213 -190,262 -61,29 -155,36 -217,16 z"
       id="path420"
       style="fill:#ff928b;fill-opacity:1" />
    <path
       d="m 6950,945 c -105,-35 -200,-141 -222,-248 -43,-206 163,-412 369,-369 155,32 275,190 260,339 -11,105 -90,213 -190,262 -61,29 -155,36 -217,16 z"
       id="path422"
       style="fill:#ff928b;fill-opacity:1" />
    <path
       d="m 8230,945 c -105,-35 -200,-141 -222,-248 -43,-206 163,-412 369,-369 155,32 275,190 260,339 -11,105 -90,213 -190,262 -61,29 -155,36 -217,16 z"
       id="path424"
       style="fill:#ff928b;fill-opacity:1" />
    <path
       d="m 9510,945 c -105,-35 -200,-141 -222,-248 -43,-206 163,-412 369,-369 155,32 275,190 260,339 -11,105 -90,213 -190,262 -61,29 -155,36 -217,16 z"
       id="path426"
       style="fill:#ff928b;fill-opacity:1" />
    <path
       d="m 10790,945 c -105,-35 -200,-141 -222,-248 -43,-206 163,-412 369,-369 155,32 275,190 260,339 -11,105 -90,213 -190,262 -61,29 -155,36 -217,16 z"
       id="path428"
       style="fill:#ff928b;fill-opacity:1" />
    <path
       d="m 12070,945 c -105,-35 -200,-141 -222,-248 -43,-206 163,-412 369,-369 155,32 275,190 260,339 -11,105 -90,213 -190,262 -61,29 -155,36 -217,16 z"
       id="path430"
       style="fill:#ff928b;fill-opacity:1" />
  </g>
</svg>
