<?xml version="1.0" encoding="UTF-8" standalone="no"?>
<!DOCTYPE svg PUBLIC "-//W3C//DTD SVG 1.1//EN" "http://www.w3.org/Graphics/SVG/1.1/DTD/svg11.dtd">
<svg version="1.1" xmlns="http://www.w3.org/2000/svg" xmlns:xlink="http://www.w3.org/1999/xlink" preserveAspectRatio="xMidYMid meet" viewBox="0 0 30 30" width="30" height="30"><defs><path d="M4.04 0C1.81 0 0 1.81 0 4.04C0 6.23 0 23.77 0 25.96C0 28.19 1.81 30 4.04 30C4.76 30 8.37 30 14.85 30L14.87 19.28C13.2 19.28 12.27 19.28 12.08 19.28C11.72 19.28 11.43 18.99 11.43 18.62C11.43 18.28 11.42 15.51 11.41 15.17C11.41 14.81 11.71 14.51 12.07 14.51C12.26 14.51 13.18 14.51 14.85 14.51C14.85 12.51 14.85 11.39 14.85 11.17C14.85 7.3 17.22 5.19 20.67 5.19C20.96 5.19 23.23 5.19 23.51 5.19C23.87 5.19 24.17 5.48 24.17 5.84C24.17 6.13 24.17 8.47 24.17 8.76C24.17 9.12 23.87 9.41 23.51 9.41C23.34 9.41 21.94 9.41 21.77 9.41C19.89 9.41 19.53 10.31 19.53 11.62C19.53 11.81 19.53 12.78 19.53 14.51C22 14.51 23.38 14.51 23.66 14.51C24.05 14.51 24.36 14.85 24.31 15.24C24.27 15.59 23.94 18.35 23.9 18.7C23.86 19.03 23.58 19.28 23.25 19.28C23 19.28 21.77 19.28 19.54 19.28L19.53 30C23.39 30 25.53 30 25.96 30C28.19 30 30 28.19 30 25.96C30 23.77 30 6.23 30 4.04C30 1.81 28.19 0 25.96 0C21.57 0 6.23 0 4.04 0Z" id="agnJFBUFN"></path></defs><g><g><g><use xlink:href="#agnJFBUFN" opacity="1" fill="#475993" fill-opacity="1"></use><g><use xlink:href="#agnJFBUFN" opacity="1" fill-opacity="0" stroke="#000000" stroke-width="1" stroke-opacity="0"></use></g></g></g></g></svg>