<?xml version="1.0" encoding="UTF-8" standalone="no"?>
<!DOCTYPE svg PUBLIC "-//W3C//DTD SVG 1.1//EN" "http://www.w3.org/Graphics/SVG/1.1/DTD/svg11.dtd">
<svg version="1.1" xmlns="http://www.w3.org/2000/svg" xmlns:xlink="http://www.w3.org/1999/xlink" preserveAspectRatio="xMidYMid meet" viewBox="0 0 30 30" width="30" height="30"><defs><path d="M0.09 15C0.09 21.55 -1.05 28.11 4.92 29.65C6.79 30.13 23.32 30.13 25.18 29.65C27.67 29.01 29.69 26.99 29.97 23.47C30.01 22.98 30.01 7.03 29.97 6.53C29.68 2.78 27.37 0.62 24.33 0.18C23.63 0.08 23.49 0.05 19.92 0.05C7.24 0.05 4.46 -0.51 1.96 2.08C-0.39 4.53 0.09 7.12 0.09 15Z" id="abR7avAUW"></path><linearGradient id="gradienta2cHmEf3bl" gradientUnits="userSpaceOnUse" x1="2.01" y1="28.05" x2="28.08" y2="1.99"><stop style="stop-color: #ffdd55;stop-opacity: 1" offset="0%"></stop><stop style="stop-color: #ff543e;stop-opacity: 1" offset="50%"></stop><stop style="stop-color: #c837ab;stop-opacity: 1" offset="100%"></stop></linearGradient><path d="M4.58 7.77C3.9 9.51 4 11.77 4 15.01C4 17.85 3.91 20.52 4.58 22.24C6.21 26.46 10.55 26.06 15.04 26.06C19.37 26.06 23.84 26.51 25.5 22.24C26.18 20.49 26.08 18.26 26.08 15.01C26.08 10.69 26.32 7.91 24.23 5.81C22.11 3.7 19.24 3.96 15.04 3.96C10.52 3.96 6.22 3.56 4.58 7.77ZM24.03 19.47C23.8 24.63 19.87 24.06 15.04 24.06C6.24 24.06 5.99 23.81 5.99 15C5.99 6.1 6.69 5.96 14.05 5.95C23.49 5.94 24.69 4.89 24.03 19.47ZM19.61 9.11C19.61 9.84 20.21 10.44 20.94 10.44C21.67 10.44 22.26 9.84 22.26 9.11C22.26 8.38 21.67 7.79 20.94 7.79C20.21 7.79 19.61 8.38 19.61 9.11ZM9.37 15.01C9.37 18.14 11.91 20.68 15.04 20.68C18.17 20.68 20.71 18.14 20.71 15.01C20.71 11.88 18.17 9.33 15.04 9.33C11.91 9.33 9.37 11.88 9.37 15.01ZM15.04 18.69C10.18 18.69 10.17 11.33 15.04 11.33C19.91 11.33 19.92 18.69 15.04 18.69Z" id="e127Y5oNaW"></path></defs><g><g><g><g><use xlink:href="#abR7avAUW" opacity="1" fill="url(#gradienta2cHmEf3bl)"></use><g><use xlink:href="#abR7avAUW" opacity="1" fill-opacity="0" stroke="#000000" stroke-width="1" stroke-opacity="0"></use></g></g><g><use xlink:href="#e127Y5oNaW" opacity="1" fill="#ffffff" fill-opacity="1"></use><g><use xlink:href="#e127Y5oNaW" opacity="1" fill-opacity="0" stroke="#000000" stroke-width="1" stroke-opacity="0"></use></g></g></g></g></g></svg>