<?xml version="1.0" encoding="utf-8"?>
<!-- Generator: Adobe Illustrator 24.2.3, SVG Export Plug-In . SVG Version: 6.00 Build 0)  -->
<svg version="1.1" id="Layer_1" xmlns="http://www.w3.org/2000/svg" xmlns:xlink="http://www.w3.org/1999/xlink" x="0px" y="0px"
	 viewBox="0 0 543.1 162.4" style="enable-background:new 0 0 543.1 162.4;" xml:space="preserve">
<style type="text/css">
	.st0{fill:#FF9933;}
	.st1{fill:#F15A24;}
</style>
<g>
	<g>
		<path class="st0" d="M56.2,93.7"/>
		<path class="st0" d="M154.6,86.7c-1.1,17.8-8.3,33.8-19.7,46.1c-3.9-10.5-5.4-21.4-5.7-31.5c-0.2,0.4-0.6,1-1.1,1.7
			c-4.8,6.8-14.6,11.3-24.2,9.8c-1.3-0.2-5.5-0.9-9-4.1C84.4,99,91.8,78,95,75.8c0.1-0.1,0.4-0.2,0.6-0.1c0.9,0.6-4.3,7.2-4.2,15.5
			c0,4.4,1.5,7.6,2,8.6c0.6,1.1,2.2,4.3,5.5,6.5c6,4.1,13.1,2.4,15.5,1.8c0.1,0,0.2-0.1,0.3-0.1c6.8-1.6,11.5-8.5,13.2-13.4
			c2.8-8.1-0.3-17.9-7.8-24.7c-5.4-4.6-10.5-6.8-13.8-7.9c0,0-20.3-6.3-35.9,6.1C69.6,69,69,70,69,70c-0.2,0.4-0.3,0.7-0.5,1.1
			c-0.6,1.6-1,2.5-1.4,4.1c-0.2,0.8-0.4,1.6-1.1,2.4c-0.6,0.7-1.3,1-1.6,1.1C58.1,81.3,41,82.5,41,82.5c-2.7,0.2-6.1,0.5-7.4,2.8
			c-0.4,0.7-0.4,1.3-0.5,2.2c-0.3,4-0.4,6-0.2,8.7c0.3,3.8,0.6,6.2,1.7,9.2c1,2.8,2.3,4.8,3.1,5.9c1.4,1.9,2.8,3.7,5.1,4.8
			c0.3,0.1,1.4,0.6,3.5,0.8c1.9,0.2,5,0.3,8.8-0.8c1.8-0.7,4.2-1.4,7-1.7c2.5-0.3,4.7-0.3,6.5-0.1c0,0,9.1,1.7,13.7,11.6
			c0,0,0.2,0.3,0.1,0.4c-0.4,0.4-4.1-5.2-10.1-7.3c-1.2-0.4-2.4-0.8-3.5-0.9c1.5,3.7,3.7,11,2.8,20.1c-0.7,7.1-3.1,12.5-4.8,15.8
			c-34.4-7.2-59.2-36-61.3-68.5c2.6-37.2,34.9-68.9,74.4-68.9C119.8,16.7,152.2,47.7,154.6,86.7z"/>
		<path class="st0" d="M154.7,82.2c0,0.7,0,1.5,0,2.3c-1.2-40.1-34.1-72.2-74.5-72.2c-40.3,0-73,32.9-74.5,71c0-0.3,0-0.7,0-1
			C5.1,42.5,38.6,7.6,80.1,7.6C121.3,7.6,154.7,41,154.7,82.2z"/>
		<path class="st0" d="M-22.2-35.3"/>
	</g>
	<path class="st1" d="M251,175.7"/>
	<path class="st1" d="M246.3,182.7"/>
	<g>
		<g>
			<path d="M176.1,98.1c2.3,1.3,5.7,2.5,9.4,2.5c4.3,0,6.7-1.9,6.7-4.7c0-2.6-1.8-4.1-6.7-5.6c-6.4-1.9-10.4-4.9-10.4-10.3
				c0-5.8,5.1-10.1,13-10.1c4.3,0,7.3,0.9,9.4,1.9l-1.7,5.3c-1.4-0.7-4.1-1.8-7.9-1.8c-4.3,0-6.1,2.2-6.1,4.2c0,2.7,2.2,3.9,7.2,5.5
				c6.6,2.1,9.9,5.1,9.9,10.5c0,5.4-4.1,10.6-14.1,10.6c-4,0-8.3-1.2-10.5-2.5L176.1,98.1z"/>
			<path d="M229.4,97.8c0,3.1,0.1,5.6,0.2,7.6h-5.8l-0.3-4.2h-0.2c-1.1,1.9-3.7,4.8-8.9,4.8c-4.6,0-9.5-2.5-9.5-11.3V80.2h6.7v13.3
				c0,4.4,1.5,7.1,5.3,7.1c2.8,0,4.8-1.9,5.5-3.7c0.2-0.5,0.4-1.2,0.4-1.9V80.2h6.7V97.8z"/>
			<path d="M236.9,87.8c0-2.9-0.1-5.5-0.2-7.6h5.8l0.3,4.1h0.2c1.1-1.9,4-4.7,8.7-4.7c4.5,0,9.8,2.7,9.8,11.4v14.4h-6.7V91.8
				c0-4-1.6-6.8-5.4-6.8c-2.9,0-4.9,2-5.6,4c-0.2,0.5-0.3,1.3-0.3,1.9v14.6h-6.7V87.8z"/>
			<path d="M268.6,99.3c1.6,1,4.6,2,7.1,2c3.1,0,4.3-1.2,4.3-2.8c0-1.7-1.1-2.6-4.5-3.5c-5.3-1.5-7.6-4.3-7.6-7.4
				c0-4.5,3.9-8,10.2-8c3,0,5.7,0.7,7.3,1.6l-1.3,4.6c-1.1-0.6-3.4-1.6-6-1.6c-2.4,0-3.8,1.1-3.8,2.7c0,1.7,1.4,2.4,4.9,3.5
				c5,1.5,7.2,3.8,7.2,7.7c0,4.4-3.6,8-10.9,8c-3.4,0-6.3-0.8-8.4-1.9L268.6,99.3z"/>
			<path d="M296.9,94.7c0.2,4.2,4,6.4,8.5,6.4c3.3,0,5.6-0.5,7.8-1.3l1,4.5c-2.4,1-5.5,1.7-9.6,1.7c-8.7,0-14-5.2-14-12.9
				c0-6.5,4.3-13.6,13.3-13.6c9.1,0,11.8,7.4,11.8,12.5c0,1.1-0.1,2.1-0.3,2.6H296.9z M309.4,90c0-1.8-0.9-6-5.9-6
				c-4.4,0-6.2,3.6-6.6,6H309.4z"/>
			<path d="M328.6,72.8v7.4h6.5v5h-6.5v10.5c0,3.1,0.7,4.9,3.5,4.9c1.2,0,2.2-0.1,2.7-0.3l0.1,5c-1,0.4-2.8,0.7-5,0.7
				c-2.5,0-4.6-0.9-5.8-2.2c-1.4-1.5-2-4-2-7.1V85.2h-3.8v-5h3.8v-5.8L328.6,72.8z"/>
			<path d="M380.1,104.2c-1.7,0.8-5.5,1.8-10.4,1.8c-12.1,0-19.6-7.1-19.6-17.7c0-10.8,8.3-18.4,20.5-18.4c4.8,0,8.3,1,9.7,1.8
				l-1.5,5.2c-1.9-0.9-4.7-1.6-8-1.6c-8.2,0-13.7,4.8-13.7,12.8c0,7.1,4.8,12.5,13.6,12.5c3,0,6.2-0.6,8.1-1.5L380.1,104.2z"/>
			<path d="M401.2,105.4l-0.5-2.9h-0.2c-1.6,2-4.5,3.5-8.1,3.5c-5.6,0-8.5-3.9-8.5-7.5c0-6.3,5.7-9.7,16.2-9.6v-0.3
				c0-1.3-0.5-4.4-5.6-4.4c-2.7,0-5.6,0.9-7.5,2l-1.3-4.3c2.1-1.3,5.6-2.4,9.9-2.4c8.6,0,11.1,5.3,11.1,10.9v8.7
				c0,2.4,0.1,4.7,0.4,6.2H401.2z M400.3,93.2c-5.3-0.1-9.7,1-9.7,4.6c0,2.3,1.7,3.5,3.9,3.5c2.9,0,4.9-1.9,5.6-3.7
				c0.1-0.5,0.2-1,0.2-1.4V93.2z"/>
			<path d="M414.1,87.8c0-2.9-0.1-5.5-0.2-7.6h5.8l0.3,4.1h0.2c1.1-1.9,4-4.7,8.7-4.7c4.5,0,9.8,2.7,9.8,11.4v14.4H432V91.8
				c0-4-1.6-6.8-5.4-6.8c-2.9,0-4.9,2-5.6,4c-0.2,0.5-0.3,1.3-0.3,1.9v14.6h-6.7V87.8z"/>
			<path d="M453.1,73c0,1.9-1.4,3.5-3.8,3.5c-2.3,0-3.7-1.6-3.7-3.5c0-1.9,1.5-3.5,3.8-3.5C451.7,69.5,453.1,71.1,453.1,73z
				 M446,105.4V80.2h6.7v25.2H446z"/>
			<path d="M460.1,87.8c0-2.9-0.1-5.5-0.2-7.6h5.8l0.3,4.1h0.2c1.1-1.9,4-4.7,8.7-4.7c4.5,0,9.8,2.7,9.8,11.4v14.4h-6.7V91.8
				c0-4-1.6-6.8-5.4-6.8c-2.9,0-4.9,2-5.6,4c-0.2,0.5-0.3,1.3-0.3,1.9v14.6h-6.7V87.8z"/>
			<path d="M496.6,94.7c0.2,4.2,4,6.4,8.5,6.4c3.3,0,5.6-0.5,7.8-1.3l1,4.5c-2.4,1-5.5,1.7-9.6,1.7c-8.7,0-14-5.2-14-12.9
				c0-6.5,4.3-13.6,13.3-13.6c9.1,0,11.8,7.4,11.8,12.5c0,1.1-0.1,2.1-0.3,2.6H496.6z M509.1,90c0-1.8-0.9-6-5.9-6
				c-4.4,0-6.2,3.6-6.6,6H509.1z"/>
			<path d="M520.6,99.3c1.6,1,4.6,2,7.1,2c3.1,0,4.3-1.2,4.3-2.8c0-1.7-1.1-2.6-4.5-3.5c-5.3-1.5-7.6-4.3-7.6-7.4
				c0-4.5,3.9-8,10.2-8c3,0,5.7,0.7,7.3,1.6l-1.3,4.6c-1.1-0.6-3.4-1.6-6-1.6c-2.4,0-3.8,1.1-3.8,2.7c0,1.7,1.4,2.4,4.9,3.5
				c5,1.5,7.2,3.8,7.2,7.7c0,4.4-3.6,8-10.9,8c-3.4,0-6.3-0.8-8.4-1.9L520.6,99.3z"/>
		</g>
	</g>
</g>
</svg>
