<?xml version="1.0" encoding="UTF-8" standalone="no"?>
<!DOCTYPE svg PUBLIC "-//W3C//DTD SVG 1.1//EN" "http://www.w3.org/Graphics/SVG/1.1/DTD/svg11.dtd">
<svg version="1.1" xmlns="http://www.w3.org/2000/svg" xmlns:xlink="http://www.w3.org/1999/xlink" preserveAspectRatio="xMidYMid meet" viewBox="0 0 10 10" width="100" height="100"><defs><path d="M7.19 8.49C7.64 8.31 7.93 7.64 7.8 7.15C7.69 6.73 7.36 6.75 6.64 6.02C6.05 5.42 6.1 5.24 5.73 5.05C5.23 4.81 4.55 4.81 4.07 5.13C3.73 5.36 3.82 5.54 3.35 6.08C2.78 6.75 2.49 6.67 2.29 7.08C1.94 7.82 2.4 8.98 2.9 9.06C3.16 9.1 3.24 8.8 3.82 8.47C3.92 8.4 4.68 7.99 5.56 8.07C6.48 8.14 6.72 8.67 7.19 8.49Z" id="b36nCPQQEE"></path><path d="M2.66 4.92C2.66 5.53 2.38 6.02 2.04 6.02C1.7 6.02 1.42 5.53 1.42 4.92C1.42 4.3 1.7 3.81 2.04 3.81C2.38 3.81 2.66 4.3 2.66 4.92Z" id="dqmnu2qf"></path><path d="M4.59 2.89C4.59 3.74 4.2 4.43 3.73 4.43C3.26 4.43 2.88 3.74 2.88 2.89C2.88 2.04 3.26 1.36 3.73 1.36C4.2 1.36 4.59 2.04 4.59 2.89Z" id="eYhzETPP4"></path><path d="M6.96 2.53C6.96 3.38 6.58 4.07 6.11 4.07C5.63 4.07 5.25 3.38 5.25 2.53C5.25 1.68 5.63 1 6.11 1C6.58 1 6.96 1.68 6.96 2.53Z" id="cPEVXwTr6"></path><path d="M8.52 4.64C8.5 5.38 8.15 5.97 7.74 5.96C7.32 5.95 7.01 5.34 7.03 4.6C7.05 3.86 7.4 3.27 7.81 3.28C8.23 3.29 8.54 3.9 8.52 4.64Z" id="aDBwjz20T"></path></defs><g><g><g><use xlink:href="#b36nCPQQEE" opacity="1" fill="#fc7c74" fill-opacity="1"></use><g><use xlink:href="#b36nCPQQEE" opacity="1" fill-opacity="0" stroke="#000000" stroke-width="1" stroke-opacity="0"></use></g></g><g><use xlink:href="#dqmnu2qf" opacity="1" fill="#fc7c74" fill-opacity="1"></use><g><use xlink:href="#dqmnu2qf" opacity="1" fill-opacity="0" stroke="#000000" stroke-width="1" stroke-opacity="0"></use></g></g><g><use xlink:href="#eYhzETPP4" opacity="1" fill="#fc7c74" fill-opacity="1"></use><g><use xlink:href="#eYhzETPP4" opacity="1" fill-opacity="0" stroke="#000000" stroke-width="1" stroke-opacity="0"></use></g></g><g><use xlink:href="#cPEVXwTr6" opacity="1" fill="#fc7c74" fill-opacity="1"></use><g><use xlink:href="#cPEVXwTr6" opacity="1" fill-opacity="0" stroke="#000000" stroke-width="1" stroke-opacity="0"></use></g></g><g><use xlink:href="#aDBwjz20T" opacity="1" fill="#fc7c74" fill-opacity="1"></use><g><use xlink:href="#aDBwjz20T" opacity="1" fill-opacity="0" stroke="#000000" stroke-width="1" stroke-opacity="0"></use></g></g></g></g></svg>