<?xml version="1.0" encoding="UTF-8" standalone="no"?>
<!DOCTYPE svg PUBLIC "-//W3C//DTD SVG 1.1//EN" "http://www.w3.org/Graphics/SVG/1.1/DTD/svg11.dtd">
<svg version="1.1" xmlns="http://www.w3.org/2000/svg" xmlns:xlink="http://www.w3.org/1999/xlink" preserveAspectRatio="xMidYMid meet" viewBox="0 0 30 30" width="30" height="30"><defs><path d="M76.84 132.18C65.24 161.96 66.92 200.64 66.92 256.02C66.92 304.62 65.37 350.29 76.84 379.84C104.87 451.99 179.03 445.08 255.91 445.08C330.09 445.08 406.57 452.8 435.01 379.84C446.63 349.76 444.93 311.66 444.93 256.02C444.93 182.17 449 134.49 413.18 98.69C376.92 62.42 327.87 66.97 255.87 66.97C178.5 66.97 104.94 60.07 76.84 132.18ZM409.81 332.35C405.78 420.61 338.58 410.92 255.98 410.92C105.37 410.92 101.03 406.61 101.03 255.94C101.03 103.51 112.98 101.12 239.02 100.99C400.6 100.78 421.16 82.82 409.81 332.35ZM334.19 155.09C334.19 167.62 344.34 177.77 356.86 177.77C369.39 177.77 379.54 167.62 379.54 155.09C379.54 142.57 369.39 132.42 356.86 132.42C344.34 132.42 334.19 142.57 334.19 155.09ZM158.89 256.02C158.89 309.63 202.35 353.09 255.96 353.09C309.57 353.09 353 309.63 353 256.02C353 202.41 309.57 158.93 255.96 158.93C202.35 158.93 158.89 202.41 158.89 256.02ZM255.96 319.04C172.67 319.04 172.54 193 255.96 193C339.26 193 339.37 319.04 255.96 319.04Z" id="csewUZEB3"></path><path d="M67.63 71.97C66.71 74.33 66.84 77.4 66.84 81.79C66.84 85.64 66.72 89.27 67.63 91.61C69.85 97.33 75.74 96.78 81.83 96.78C87.72 96.78 93.78 97.4 96.04 91.61C96.96 89.22 96.83 86.2 96.83 81.79C96.83 75.93 97.15 72.15 94.31 69.31C91.43 66.44 87.54 66.8 81.83 66.8C75.69 66.8 69.86 66.25 67.63 71.97ZM94.04 87.84C93.72 94.84 88.39 94.08 81.84 94.08C69.89 94.08 69.55 93.73 69.55 81.78C69.55 69.7 70.5 69.51 80.49 69.5C93.31 69.48 94.94 68.05 94.04 87.84ZM88.04 73.79C88.04 74.78 88.85 75.58 89.84 75.58C90.83 75.58 91.64 74.78 91.64 73.79C91.64 72.79 90.83 71.99 89.84 71.99C88.85 71.99 88.04 72.79 88.04 73.79ZM74.14 81.79C74.14 86.04 77.59 89.49 81.84 89.49C86.09 89.49 89.53 86.04 89.53 81.79C89.53 77.54 86.09 74.09 81.84 74.09C77.59 74.09 74.14 77.54 74.14 81.79ZM81.84 86.79C75.23 86.79 75.22 76.79 81.84 76.79C88.45 76.79 88.45 86.79 81.84 86.79Z" id="a9NKk2TgI"></path><path d="M5.37 29.49C2.81 29.21 0.79 27.19 0.51 24.63C-0.17 18.22 -0.17 11.78 0.51 5.36C0.79 2.8 2.81 0.78 5.37 0.51C11.78 -0.17 18.22 -0.17 24.63 0.51C27.19 0.78 29.21 2.8 29.49 5.36C30.17 11.78 30.17 18.22 29.49 24.63C29.21 27.19 27.19 29.21 24.63 29.49C18.22 30.17 11.78 30.17 5.37 29.49Z" id="ad88tmyDY"></path><linearGradient id="gradienta3VSMxu71b" gradientUnits="userSpaceOnUse" x1="9.96" y1="4.21" x2="17.55" y2="20.45"><stop style="stop-color: #00c3ff;stop-opacity: 1" offset="0%"></stop><stop style="stop-color: #00b0ed;stop-opacity: 1" offset="100%"></stop></linearGradient><path d="M23.55 2.14C17.86 1.53 12.14 1.53 6.45 2.14C4.18 2.38 2.39 4.18 2.15 6.45C1.54 12.14 1.54 17.85 2.15 23.55C2.39 25.82 4.18 27.61 6.45 27.85C12.14 28.46 17.86 28.46 23.55 27.85C25.82 27.61 27.61 25.82 27.85 23.55C28.46 17.85 28.46 12.14 27.85 6.45C27.61 4.18 25.82 2.38 23.55 2.14Z" id="he98aAx7O"></path><linearGradient id="gradienta37sIRpTe" gradientUnits="userSpaceOnUse" x1="21.34" y1="18.4" x2="-22.24" y2="-4.98"><stop style="stop-color: #00b0ed;stop-opacity: 0" offset="0%"></stop><stop style="stop-color: #00a2ce;stop-opacity: 1" offset="100%"></stop></linearGradient><path d="M0.45 24.01C0.47 24.22 0.49 24.43 0.51 24.63C0.79 27.19 2.81 29.21 5.37 29.49C11.78 30.17 18.22 30.17 24.63 29.49C27.19 29.21 29.21 27.19 29.49 24.63C29.51 24.43 29.53 24.22 29.55 24.01C23.73 24.01 6.27 24.01 0.45 24.01Z" id="a5Blk3WS7Z"></path><linearGradient id="gradientinMeqx9Nw" gradientUnits="userSpaceOnUse" x1="15" y1="25.63" x2="15" y2="29.56"><stop style="stop-color: #00b0ed;stop-opacity: 0" offset="0%"></stop><stop style="stop-color: #00a2ce;stop-opacity: 1" offset="100%"></stop></linearGradient><path d="M23.77 7.72C23.07 8.12 22.45 8.34 21.99 8.46C21.73 8.53 21.52 8.57 21.36 8.59C20.66 7.87 19.68 7.42 18.6 7.42C16.46 7.42 14.73 9.15 14.73 11.29C14.73 11.37 14.73 11.44 14.74 11.52C14.75 11.7 14.77 11.88 14.81 12.06C13.92 12.05 11.02 11.81 8.25 9.44C8.25 9.44 8.25 9.44 8.25 9.44C8.25 9.44 8.25 9.44 8.25 9.44C7.47 8.66 7.04 8.22 6.95 8.14C6.95 8.14 5.42 10.81 7.67 12.83C7.77 12.94 7.88 13.05 8 13.16C8 13.17 8.01 13.18 8.02 13.19C7.73 13.17 6.84 13.08 6.33 12.72C6.33 12.72 6.22 14.35 7.58 15.55C7.69 15.66 8.57 16.55 8.68 16.66C8.35 16.68 7.98 16.68 7.72 16.56C7.72 16.56 7.95 17.53 8.83 18.3C8.98 18.46 10.21 19.7 10.36 19.85C9.44 20.39 7.83 21.06 5.7 20.89C6.63 21.8 14.09 29.09 15.03 30C18.23 30 21.44 29.83 24.63 29.49C27.19 29.21 29.21 27.19 29.49 24.63C29.87 21.07 30.04 17.51 29.99 13.94C28.75 12.7 24.39 8.34 23.77 7.72Z" id="a2VIIldKt"></path><linearGradient id="gradientc7SOELSxf" gradientUnits="userSpaceOnUse" x1="28.68" y1="28.25" x2="14.02" y2="13.59"><stop style="stop-color: #00b0ed;stop-opacity: 0" offset="0%"></stop><stop style="stop-color: #00a2ce;stop-opacity: 1" offset="100%"></stop></linearGradient><path d="M22.3 9.77C22.3 9.76 22.3 9.74 22.29 9.73C23.42 9.03 23.77 7.72 23.77 7.72C23.07 8.12 22.45 8.34 21.99 8.46C21.73 8.53 21.52 8.57 21.36 8.59C20.66 7.87 19.68 7.42 18.6 7.42C16.46 7.42 14.73 9.15 14.73 11.29C14.73 11.37 14.73 11.44 14.74 11.52C14.75 11.7 14.77 11.88 14.81 12.06C13.77 12.05 10.04 11.73 6.95 8.14C6.95 8.14 5.23 11.14 8.12 13.19C8.12 13.19 6.95 13.16 6.33 12.72C6.33 12.72 6.14 15.61 9.48 16.53C9.48 16.53 8.31 16.82 7.72 16.56C7.72 16.56 8.31 19.06 11.24 19.24C11.24 19.24 9.13 21.16 5.7 20.89C7.39 21.96 9.39 22.58 11.54 22.58C17.57 22.58 22.46 17.68 22.46 11.65C22.46 11.57 22.46 11.5 22.46 11.42C22.46 11.38 22.46 11.33 22.46 11.29C22.46 11.26 22.46 11.23 22.46 11.19C23.58 10.45 24.3 9.22 24.3 9.22C23.63 9.57 22.63 9.73 22.3 9.77Z" id="c7eSc1zxcc"></path></defs><g><g><g><use xlink:href="#csewUZEB3" opacity="1" fill="#ffffff" fill-opacity="1"></use><g><use xlink:href="#csewUZEB3" opacity="1" fill-opacity="0" stroke="#000000" stroke-width="1" stroke-opacity="0"></use></g></g><g><use xlink:href="#a9NKk2TgI" opacity="1" fill="#ffffff" fill-opacity="1"></use><g><use xlink:href="#a9NKk2TgI" opacity="1" fill-opacity="0" stroke="#000000" stroke-width="1" stroke-opacity="0"></use></g></g><g><g><use xlink:href="#ad88tmyDY" opacity="1" fill="url(#gradienta3VSMxu71b)"></use><g><use xlink:href="#ad88tmyDY" opacity="1" fill-opacity="0" stroke="#000000" stroke-width="1" stroke-opacity="0"></use></g></g><g><use xlink:href="#he98aAx7O" opacity="1" fill="url(#gradienta37sIRpTe)"></use><g><use xlink:href="#he98aAx7O" opacity="1" fill-opacity="0" stroke="#000000" stroke-width="1" stroke-opacity="0"></use></g></g><g><use xlink:href="#a5Blk3WS7Z" opacity="1" fill="url(#gradientinMeqx9Nw)"></use><g><use xlink:href="#a5Blk3WS7Z" opacity="1" fill-opacity="0" stroke="#000000" stroke-width="1" stroke-opacity="0"></use></g></g><g><use xlink:href="#a2VIIldKt" opacity="1" fill="url(#gradientc7SOELSxf)"></use><g><use xlink:href="#a2VIIldKt" opacity="1" fill-opacity="0" stroke="#000000" stroke-width="1" stroke-opacity="0"></use></g></g><g><use xlink:href="#c7eSc1zxcc" opacity="1" fill="#ffffff" fill-opacity="1"></use><g><use xlink:href="#c7eSc1zxcc" opacity="1" fill-opacity="0" stroke="#000000" stroke-width="1" stroke-opacity="0"></use></g></g></g></g></g></svg>