<?xml version="1.0" encoding="UTF-8" standalone="no"?>
<!DOCTYPE svg PUBLIC "-//W3C//DTD SVG 1.1//EN" "http://www.w3.org/Graphics/SVG/1.1/DTD/svg11.dtd">
<svg version="1.1" xmlns="http://www.w3.org/2000/svg" xmlns:xlink="http://www.w3.org/1999/xlink" preserveAspectRatio="xMidYMid meet" viewBox="0 0 60 60" width="60" height="60"><defs><path d="" id="aWHj6Xzdv"></path><path d="M52.04 51.17C50.47 46.95 49.87 42.57 49.75 38.5C49.66 38.67 49.5 38.91 49.3 39.19C47.37 41.92 43.43 43.73 39.57 43.13C39.05 43.05 37.36 42.77 35.95 41.48C31.73 37.58 34.71 29.13 35.99 28.25C36.03 28.21 36.15 28.17 36.23 28.21C36.6 28.45 34.5 31.1 34.54 34.44C34.54 36.21 35.15 37.5 35.35 37.9C35.59 38.34 36.23 39.63 37.56 40.52C39.97 42.16 42.83 41.48 43.79 41.24C43.83 41.24 43.87 41.2 43.91 41.2C46.65 40.56 48.54 37.78 49.22 35.81C50.35 32.55 49.1 28.61 46.09 25.88C43.91 24.03 41.86 23.14 40.54 22.7C40.54 22.7 32.37 20.17 26.1 25.15C25.78 25.52 25.54 25.92 25.54 25.92C25.46 26.08 25.42 26.2 25.34 26.36C25.09 27 24.93 27.36 24.77 28.01C24.69 28.33 24.61 28.65 24.33 28.97C24.09 29.25 23.81 29.38 23.69 29.42C21.15 30.46 14.28 30.94 14.28 30.94C13.19 31.02 11.82 31.15 11.3 32.07C11.14 32.35 11.14 32.59 11.1 32.95C10.98 34.56 10.94 35.37 11.02 36.45C11.14 37.98 11.26 38.95 11.7 40.15C12.1 41.28 12.63 42.08 12.95 42.53C13.51 43.29 14.08 44.01 15 44.46C15.12 44.5 15.56 44.7 16.41 44.78C17.17 44.86 18.42 44.9 19.95 44.46C20.67 44.17 21.64 43.89 22.76 43.77C23.77 43.65 24.65 43.65 25.38 43.73C25.38 43.73 29.03 44.42 30.88 48.4C30.88 48.4 30.97 48.52 30.92 48.56C30.76 48.72 29.28 46.47 26.86 45.62C26.38 45.46 25.9 45.3 25.46 45.26C26.06 46.75 26.94 49.68 26.58 53.34C26.3 56.2 25.34 58.37 24.65 59.7C10.82 56.8 0.84 45.22 0 32.15C1.05 17.19 14.03 4.44 29.92 4.44C45.97 4.48 58.99 16.95 59.96 32.63C59.52 39.79 56.62 46.23 52.04 51.17Z" id="a1H4pUDFvh"></path><path d="M60 31.75C59.52 15.62 46.29 2.71 30.04 2.71C13.83 2.71 0.68 15.94 0.08 31.27C0.08 31.15 0.08 30.98 0.08 30.86C-0.16 14.86 13.31 0.82 30 0.82C46.57 0.82 60 14.25 60 30.82C60 31.1 60 31.43 60 31.75Z" id="i2mIlisP9l"></path><path d="" id="b5HZFjv3Ny"></path></defs><g><g><g><g><use xlink:href="#aWHj6Xzdv" opacity="1" fill="#ffffff" fill-opacity="1"></use><g><use xlink:href="#aWHj6Xzdv" opacity="1" fill-opacity="0" stroke="#000000" stroke-width="1" stroke-opacity="0"></use></g></g><g><use xlink:href="#a1H4pUDFvh" opacity="1" fill="#ffffff" fill-opacity="1"></use><g><use xlink:href="#a1H4pUDFvh" opacity="1" fill-opacity="0" stroke="#000000" stroke-width="1" stroke-opacity="0"></use></g></g><g><use xlink:href="#i2mIlisP9l" opacity="1" fill="#ffffff" fill-opacity="1"></use><g><use xlink:href="#i2mIlisP9l" opacity="1" fill-opacity="0" stroke="#000000" stroke-width="1" stroke-opacity="0"></use></g></g></g><g><use xlink:href="#b5HZFjv3Ny" opacity="1" fill="#ff9933" fill-opacity="1"></use><g><use xlink:href="#b5HZFjv3Ny" opacity="1" fill-opacity="0" stroke="#000000" stroke-width="1" stroke-opacity="0"></use></g></g></g></g></svg>