<?xml version="1.0" encoding="UTF-8" standalone="no"?>
<!DOCTYPE svg PUBLIC "-//W3C//DTD SVG 1.1//EN" "http://www.w3.org/Graphics/SVG/1.1/DTD/svg11.dtd">
<svg version="1.1" xmlns="http://www.w3.org/2000/svg" xmlns:xlink="http://www.w3.org/1999/xlink" preserveAspectRatio="xMidYMid meet" viewBox="0 0 200 200" width="200" height="200"><defs><path d="" id="a5eyHiPPcV"></path><path d="M164.64 160.34C160.04 147.96 158.27 135.12 157.92 123.21C157.68 123.69 157.21 124.39 156.62 125.22C150.97 133.23 139.42 138.53 128.11 136.77C126.57 136.53 121.62 135.71 117.5 131.94C105.13 120.5 113.85 95.76 117.62 93.17C117.74 93.05 118.09 92.93 118.32 93.05C119.39 93.75 113.26 101.53 113.38 111.31C113.38 116.5 115.14 120.27 115.73 121.45C116.44 122.74 118.32 126.51 122.21 129.11C129.28 133.94 137.65 131.94 140.48 131.23C140.6 131.23 140.71 131.11 140.83 131.11C148.85 129.22 154.38 121.09 156.39 115.32C159.69 105.77 156.03 94.23 147.2 86.21C140.83 80.79 134.82 78.2 130.93 76.9C130.93 76.9 107.01 69.48 88.63 84.09C87.69 85.15 86.98 86.33 86.98 86.33C86.74 86.8 86.62 87.16 86.39 87.63C85.68 89.51 85.21 90.57 84.74 92.46C84.5 93.4 84.27 94.34 83.44 95.29C82.74 96.11 81.91 96.46 81.56 96.58C74.13 99.65 53.98 101.06 53.98 101.06C50.8 101.3 46.79 101.65 45.26 104.36C44.79 105.19 44.79 105.89 44.67 106.95C44.32 111.67 44.2 114.02 44.44 117.2C44.79 121.68 45.14 124.51 46.44 128.05C47.62 131.35 49.15 133.7 50.09 135C51.74 137.24 53.39 139.36 56.1 140.66C56.46 140.77 57.75 141.36 60.23 141.6C62.47 141.83 66.12 141.95 70.6 140.66C72.72 139.83 75.55 139.01 78.85 138.65C81.79 138.3 84.39 138.3 86.51 138.53C86.51 138.53 97.23 140.54 102.65 152.2C102.65 152.2 102.89 152.56 102.77 152.68C102.3 153.15 97.94 146.55 90.87 144.07C89.45 143.6 88.04 143.13 86.74 143.01C88.51 147.37 91.1 155.97 90.04 166.7C89.22 175.07 86.39 181.43 84.39 185.32C43.85 176.83 14.62 142.89 12.15 104.6C15.21 60.76 53.28 23.4 99.82 23.4C146.84 23.52 185.02 60.05 187.85 106.01C186.55 126.99 178.07 145.84 164.64 160.34Z" id="a2oUM3fePI"></path><path d="M187.3 103.36C185.89 56.11 147.12 18.28 99.51 18.28C52.02 18.28 13.48 57.05 11.72 101.95C11.72 101.59 11.72 101.12 11.72 100.77C11.01 53.87 50.49 12.74 99.39 12.74C147.94 12.74 187.3 52.1 187.3 100.65C187.3 101.47 187.3 102.42 187.3 103.36Z" id="d4F6EvSDg"></path><path d="" id="eURae6nM"></path><path d="" id="lUgcfrrX1"></path><path d="" id="b7FUEne7mh"></path></defs><g><g><g><use xlink:href="#a5eyHiPPcV" opacity="1" fill="#ff9933" fill-opacity="1"></use><g><use xlink:href="#a5eyHiPPcV" opacity="1" fill-opacity="0" stroke="#000000" stroke-width="1" stroke-opacity="0"></use></g></g><g><use xlink:href="#a2oUM3fePI" opacity="1" fill="#ffffff" fill-opacity="1"></use><g><use xlink:href="#a2oUM3fePI" opacity="1" fill-opacity="0" stroke="#000000" stroke-width="1" stroke-opacity="0"></use></g></g><g><use xlink:href="#d4F6EvSDg" opacity="1" fill="#ffffff" fill-opacity="1"></use><g><use xlink:href="#d4F6EvSDg" opacity="1" fill-opacity="0" stroke="#000000" stroke-width="1" stroke-opacity="0"></use></g></g><g><use xlink:href="#eURae6nM" opacity="1" fill="#ff9933" fill-opacity="1"></use><g><use xlink:href="#eURae6nM" opacity="1" fill-opacity="0" stroke="#000000" stroke-width="1" stroke-opacity="0"></use></g></g><g><use xlink:href="#lUgcfrrX1" opacity="1" fill="#f15a24" fill-opacity="1"></use><g><use xlink:href="#lUgcfrrX1" opacity="1" fill-opacity="0" stroke="#000000" stroke-width="1" stroke-opacity="0"></use></g></g><g><use xlink:href="#b7FUEne7mh" opacity="1" fill="#f15a24" fill-opacity="1"></use><g><use xlink:href="#b7FUEne7mh" opacity="1" fill-opacity="0" stroke="#000000" stroke-width="1" stroke-opacity="0"></use></g></g></g></g></svg>